<svg width="700" height="600" viewBox="0 0 700 600" fill="none" xmlns="http://www.w3.org/2000/svg">
<path opacity="0.5" d="M475.882 153.448C530.948 184.782 602.154 206.045 632.536 246.705C662.443 287.365 651.047 347.796 620.196 408.6C589.812 469.404 539.967 530.954 465.443 562.662C390.92 594.37 291.22 596.608 226.66 561.542C162.099 526.477 133.14 454.113 102.289 392.187C71.9036 329.891 40.0989 278.413 52.9151 235.141C65.7313 191.869 123.173 156.431 178.713 125.47C234.254 94.1358 288.372 66.9045 334.893 73.9919C381.414 81.0794 420.341 122.113 475.882 153.448Z" fill="#CCEAE1"/>
<path d="M407.962 466.963C407.961 467.762 407.643 468.528 407.078 469.093C406.513 469.658 405.747 469.976 404.948 469.977L304.711 469.885C303.911 469.885 303.144 469.567 302.579 469.002C302.014 468.437 301.696 467.67 301.696 466.871C301.696 466.071 302.014 465.305 302.579 464.739C303.144 464.174 303.911 463.856 304.711 463.856H308.032C316.275 456.905 319.874 448.447 321.35 441.465C323.011 433.714 322.088 427.778 322.088 427.778L387.509 427.871C387.509 427.871 386.586 433.745 388.247 441.465C390.039 450.249 394.742 458.171 401.596 463.949H404.917C405.72 463.949 406.489 464.265 407.06 464.83C407.63 465.394 407.954 466.161 407.962 466.963V466.963Z" fill="#EFF3FB"/>
<path d="M321.381 441.496C323.042 433.745 322.119 427.809 322.119 427.809L387.539 427.901C387.539 427.901 386.617 433.775 388.278 441.496H321.381Z" fill="#D0DBE5"/>
<path d="M492.049 245.14V427.099C492.05 428.137 491.845 429.165 491.448 430.124C491.051 431.084 490.469 431.955 489.735 432.689C489.001 433.423 488.129 434.005 487.17 434.403C486.211 434.8 485.183 435.004 484.145 435.004H223.54C222.501 435.004 221.473 434.8 220.514 434.403C219.555 434.005 218.684 433.423 217.949 432.689C217.215 431.955 216.633 431.084 216.236 430.124C215.839 429.165 215.635 428.137 215.635 427.099V245.14C215.635 244.102 215.839 243.074 216.236 242.115C216.633 241.155 217.215 240.284 217.949 239.55C218.684 238.816 219.555 238.234 220.514 237.836C221.473 237.439 222.501 237.235 223.54 237.235H484.145C485.183 237.235 486.211 237.439 487.17 237.836C488.129 238.234 489.001 238.816 489.735 239.55C490.469 240.284 491.051 241.155 491.448 242.115C491.845 243.074 492.05 244.102 492.049 245.14V245.14Z" fill="#172B4D"/>
<path d="M492.049 400.371V427.099C492.05 428.137 491.845 429.165 491.448 430.124C491.051 431.083 490.469 431.955 489.735 432.689C489.001 433.423 488.129 434.005 487.17 434.403C486.211 434.8 485.183 435.004 484.145 435.004H223.54C222.501 435.004 221.473 434.8 220.514 434.403C219.555 434.005 218.684 433.423 217.949 432.689C217.215 431.955 216.633 431.083 216.236 430.124C215.839 429.165 215.635 428.137 215.635 427.099V400.371H492.049Z" fill="#EFF3FB"/>
<path d="M355.274 425.04C358.859 425.04 361.764 422.134 361.764 418.55C361.764 414.966 358.859 412.061 355.274 412.061C351.69 412.061 348.785 414.966 348.785 418.55C348.785 422.134 351.69 425.04 355.274 425.04Z" fill="white"/>
<path d="M483.038 250.738V385.762C483.038 386.412 482.911 387.056 482.662 387.657C482.413 388.258 482.048 388.804 481.588 389.264C481.128 389.724 480.582 390.089 479.982 390.338C479.381 390.586 478.736 390.714 478.086 390.714H229.63C228.979 390.714 228.335 390.586 227.734 390.338C227.133 390.089 226.587 389.724 226.127 389.264C225.668 388.804 225.303 388.258 225.054 387.657C224.805 387.056 224.677 386.412 224.678 385.762V250.738C224.677 250.088 224.805 249.444 225.054 248.843C225.303 248.242 225.668 247.696 226.127 247.236C226.587 246.776 227.133 246.411 227.734 246.162C228.335 245.914 228.979 245.786 229.63 245.786H478.086C478.736 245.786 479.381 245.913 479.982 246.162C480.582 246.411 481.129 246.776 481.588 247.236C482.048 247.695 482.413 248.242 482.662 248.843C482.91 249.444 483.038 250.088 483.038 250.738V250.738Z" fill="#EEF8F5"/>
<path d="M483.038 250.738V258.673H224.647V250.738C224.647 250.088 224.774 249.444 225.023 248.843C225.272 248.242 225.637 247.696 226.097 247.236C226.556 246.776 227.102 246.411 227.703 246.162C228.304 245.914 228.948 245.786 229.599 245.786H478.055C478.708 245.783 479.355 245.908 479.959 246.155C480.563 246.402 481.113 246.767 481.576 247.227C482.039 247.687 482.406 248.234 482.657 248.837C482.908 249.439 483.037 250.085 483.038 250.738Z" fill="#CCEAE1"/>
<path d="M236.242 254.892C237.567 254.892 238.641 253.818 238.641 252.493C238.641 251.168 237.567 250.094 236.242 250.094C234.917 250.094 233.843 251.168 233.843 252.493C233.843 253.818 234.917 254.892 236.242 254.892Z" fill="white"/>
<path d="M246.638 254.892C247.963 254.892 249.037 253.818 249.037 252.493C249.037 251.168 247.963 250.094 246.638 250.094C245.313 250.094 244.239 251.168 244.239 252.493C244.239 253.818 245.313 254.892 246.638 254.892Z" fill="white"/>
<path d="M257.495 254.892C258.82 254.892 259.895 253.818 259.895 252.493C259.895 251.168 258.82 250.094 257.495 250.094C256.171 250.094 255.096 251.168 255.096 252.493C255.096 253.818 256.171 254.892 257.495 254.892Z" fill="white"/>
<path d="M417.218 451.8V467.578C417.216 467.898 417.278 468.215 417.399 468.511C417.521 468.806 417.7 469.075 417.926 469.301C418.152 469.527 418.42 469.706 418.716 469.827C419.012 469.949 419.328 470.01 419.648 470.008H538.924L563.868 459.766L540.339 449.955L538.924 449.37H419.648C419.328 449.368 419.012 449.43 418.716 449.551C418.42 449.673 418.152 449.852 417.926 450.078C417.7 450.304 417.521 450.572 417.399 450.868C417.278 451.164 417.216 451.48 417.218 451.8V451.8Z" fill="#F1884F"/>
<path d="M538.894 449.37V469.977H538.925L553.196 464.134L563.9 459.766L553.719 455.522L553.196 455.306L538.925 449.37H538.894Z" fill="#FCBB9D"/>
<path d="M553.196 455.306V464.133L563.9 459.765L553.196 455.306Z" fill="#373133"/>
<path d="M446.623 449.37L446.654 459.674L540.34 459.766V449.955L538.925 449.37H446.623Z" fill="#D87245"/>
<path d="M538.894 449.37V459.766H553.75L553.719 455.522L553.196 455.306L538.925 449.37H538.894Z" fill="#DBA18A"/>
<path d="M553.196 455.306V459.765H563.9L553.196 455.306Z" fill="#161415"/>
<path d="M417.221 451.798V467.577C417.219 467.896 417.281 468.213 417.402 468.509C417.524 468.804 417.703 469.073 417.929 469.299C418.155 469.525 418.423 469.704 418.719 469.825C419.015 469.947 419.332 470.008 419.651 470.006H433.984V449.399H419.651C419.332 449.391 419.016 449.448 418.719 449.565C418.423 449.682 418.153 449.858 417.926 450.082C417.699 450.306 417.52 450.574 417.399 450.868C417.278 451.163 417.217 451.48 417.221 451.798V451.798Z" fill="#EE504F"/>
<path d="M447.73 449.37H433.582V469.977H447.73V449.37Z" fill="#373133"/>
<path d="M417.218 451.8V459.643H433.981V449.37H419.648C419.328 449.368 419.012 449.43 418.716 449.551C418.42 449.673 418.152 449.852 417.926 450.078C417.7 450.304 417.521 450.572 417.399 450.868C417.278 451.164 417.216 451.48 417.218 451.8V451.8Z" fill="#CE4646"/>
<path d="M447.73 449.37H433.582V459.643H447.73V449.37Z" fill="#161415"/>
<path d="M266.291 230.284L275.703 221.61C275.703 221.61 301.17 258.888 309.966 269.099L307.906 271.621L266.291 230.284Z" fill="#AFAFD5"/>
<path d="M324.947 261.167L315.843 257.814C315.381 261.536 312.244 263.135 309.66 263.843C309.384 263.904 306.062 264.273 300.895 261.659L303.017 270.702C303.017 270.702 311.044 270.579 315.504 269.656L315.566 269.687C315.985 269.596 316.396 269.473 316.796 269.318C317.08 269.235 317.358 269.133 317.627 269.01V269.01C319.345 268.316 320.891 267.254 322.156 265.9C323.42 264.545 324.373 262.929 324.947 261.167Z" fill="#52B69A"/>
<path d="M358.072 306.133C355.396 321.665 341.647 326.463 341.647 326.463C339.617 322.219 335.619 317.083 330.329 311.485C322.024 302.688 310.583 292.784 298.864 283.311C295.019 280.205 291.144 277.16 287.33 274.238C266.2 257.937 247.1 244.957 247.1 244.957C251.067 227.21 266.077 222.658 266.077 222.658C267.123 224.227 268.23 225.765 269.399 227.333C277.795 238.621 289.022 250.186 300.679 260.797C301.202 261.258 301.725 261.75 302.247 262.212C304.8 264.519 307.384 266.795 309.937 269.009C310.398 269.409 310.829 269.778 311.29 270.178C315.565 273.838 319.779 277.314 323.808 280.574C326.607 282.819 329.314 284.972 331.928 286.971C346.938 298.628 358.072 306.133 358.072 306.133Z" fill="#DBDCF1"/>
<path d="M287.329 274.299C287.329 274.299 297.264 268.025 300.739 260.797C300.739 260.797 315.78 275.222 328.821 266.61L337.002 276.083C337.002 276.083 327.744 290.6 310.274 270.608C310.274 270.608 306.829 279.774 298.925 283.403C298.925 283.373 290.743 280.574 287.329 274.299Z" fill="#7DC8B3"/>
<path d="M358.073 306.133C355.397 321.665 341.649 326.463 341.649 326.463C339.619 322.219 335.621 317.082 330.33 311.485L331.96 287.002C346.939 298.628 358.073 306.133 358.073 306.133Z" fill="#AFAFD5"/>
<path d="M461.384 217.427H336.756V387.268H461.384V217.427Z" fill="#EFF3FB"/>
<path d="M396.489 272.942H351.522V278.632H396.489V272.942Z" fill="white"/>
<path d="M446.9 286.909H351.522V292.599H446.9V286.909Z" fill="white"/>
<path d="M446.9 300.871H351.522V306.561H446.9V300.871Z" fill="white"/>
<path d="M446.9 314.835H351.522V320.525H446.9V314.835Z" fill="white"/>
<path d="M446.9 328.8H351.522V334.49H446.9V328.8Z" fill="white"/>
<path d="M446.9 342.763H351.522V348.453H446.9V342.763Z" fill="white"/>
<path d="M345.86 376.537L336.602 401.881L347.152 398.313L354.134 407.879L362.9 381.735L345.86 376.537Z" fill="#52B69A"/>
<path d="M378.156 376.537L387.414 401.881L376.864 398.313L369.882 407.879L361.116 381.735L378.156 376.537Z" fill="#52B69A"/>
<path d="M446.9 356.727H351.522V362.417H446.9V356.727Z" fill="white"/>
<path d="M344.874 327.508L354.932 330.583L362.098 322.617L368.742 330.583L378.8 327.354L381.229 337.565L391.133 339.195L388.396 349.591L395.685 356.235L388.211 363.401L390.98 373.305L381.076 375.735L380.122 386.131L369.234 383.855L362.406 391.329L355.117 383.362L344.874 386.776L343.398 375.888L333.033 373.766L335.617 363.401L328.143 356.881L335.617 349.899L332.695 339.349L342.445 337.719L344.874 327.508Z" fill="#7DC8B3"/>
<path d="M362.377 378.564C374.641 378.564 384.584 368.621 384.584 356.357C384.584 344.093 374.641 334.15 362.377 334.15C350.113 334.15 340.17 344.093 340.17 356.357C340.17 368.621 350.113 378.564 362.377 378.564Z" fill="#52B69A"/>
<path d="M362.379 344.64L366.193 352.36L374.713 353.59L368.531 359.618L370.007 368.107L362.379 364.078L354.751 368.107L356.197 359.618L350.046 353.59L358.565 352.36L362.379 344.64Z" fill="white"/>
<path d="M401.776 189.408L395.287 215.706C395.287 215.706 419.8 238.435 464.613 231.607L469.411 205.371L401.776 189.408Z" fill="#172B4D"/>
<path d="M431.335 211.494L374.834 183.074L376.28 179.845L496.448 208.234L495.956 211.494H431.335Z" fill="#71828A"/>
<path d="M376.375 179.904L439.703 183.165L496.358 208.17H432.383L376.375 179.904Z" fill="#172B4D"/>
<path d="M466.768 241.543H464V208.941L437.917 192.701L439.363 190.363L466.768 207.403V241.543Z" fill="#52B69A"/>
<path d="M432.351 188.609C432.008 188.76 431.687 188.957 431.397 189.194C431.196 189.368 431.037 189.586 430.932 189.831C430.826 190.076 430.778 190.341 430.79 190.608C430.802 190.874 430.873 191.134 431 191.368C431.126 191.603 431.304 191.806 431.52 191.962C432.72 192.854 435.057 193.992 439.025 194.053C439.286 194.061 439.545 194.01 439.784 193.905C440.022 193.8 440.235 193.644 440.406 193.446C440.577 193.249 440.701 193.016 440.771 192.765C440.841 192.513 440.854 192.25 440.809 191.993C440.738 191.632 440.624 191.281 440.47 190.947L432.351 188.609Z" fill="#52B69A"/>
<path d="M440.466 191.489C440.703 190.586 438.965 189.346 436.583 188.721C434.201 188.095 432.078 188.32 431.841 189.224C431.604 190.127 433.342 191.367 435.724 191.992C438.106 192.618 440.229 192.393 440.466 191.489Z" fill="#71828A"/>
<path d="M465.442 240.956C465.96 240.953 466.458 241.155 466.827 241.518C467.196 241.881 467.406 242.376 467.411 242.894L467.442 245.908L468.856 257.104H462.028L463.443 245.908L463.474 242.894C463.479 242.376 463.689 241.881 464.058 241.518C464.427 241.155 464.925 240.953 465.442 240.956V240.956Z" fill="#52B69A"/>
<path d="M204.129 225.887C217.65 225.887 228.612 214.926 228.612 201.405C228.612 187.883 217.65 176.922 204.129 176.922C190.608 176.922 179.646 187.883 179.646 201.405C179.646 214.926 190.608 225.887 204.129 225.887Z" fill="#A9DBCD"/>
<path d="M195.985 189.041C195.561 188.795 195.029 189.101 195.029 189.592V213.225C195.029 213.714 195.557 214.02 195.982 213.777L216.492 202.045C216.917 201.802 216.919 201.188 216.495 200.942L195.985 189.041Z" fill="#52B69A"/>
<path d="M278.904 336.796H209.116C210.592 397.695 237.536 403.201 237.536 403.201C237.043 410.674 230.892 422.516 230.892 422.516H257.189C257.189 422.516 251.007 410.674 250.546 403.201C250.484 403.201 277.458 397.664 278.904 336.796Z" fill="#F1884F"/>
<path d="M275.277 433.956H213.424V446.782H275.277V433.956Z" fill="#172B4D"/>
<path d="M270.017 420.639H218.714V435.648H270.017V420.639Z" fill="#172B4D"/>
<path d="M216.653 397.601C216.653 397.601 219.729 391.603 216.007 391.603C216.007 391.603 211.394 391.357 211.394 395.417C211.394 395.417 211.916 404.367 220.159 399.631C223.174 397.908 225.849 390.865 218.868 385.821C216.346 384.006 213.793 383.053 207.672 381.423C201.121 379.7 190.632 374.779 191.278 359.831C191.278 359.831 192.57 347.344 201.674 345.529C201.674 345.529 208.502 344.729 205.888 352.849C205.609 353.491 205.212 354.075 204.719 354.572C204.405 354.876 204.212 355.284 204.178 355.721C204.144 356.157 204.271 356.591 204.535 356.94C205.365 357.986 206.78 358.939 208.81 357.555C208.81 357.555 212.378 351.557 208.656 345.529C208.656 345.529 203.274 338.793 194.354 345.375C189.433 349.005 185.035 358.109 188.172 369.243C189.741 374.779 194.662 382.714 204.904 384.99C204.904 384.99 211.455 386.774 213.67 387.266C215.638 387.697 220.006 389.389 219.667 392.618C219.237 396.832 216.653 397.601 216.653 397.601Z" fill="#F1884F"/>
<path d="M271.799 397.601C271.799 397.601 268.723 391.603 272.445 391.603C272.445 391.603 277.058 391.357 277.058 395.417C277.058 395.417 276.535 404.367 268.292 399.631C265.278 397.908 262.602 390.865 269.584 385.821C272.106 384.006 274.659 383.053 280.78 381.423C287.331 379.7 297.819 374.779 297.173 359.831C297.173 359.831 295.881 347.344 286.777 345.529C286.777 345.529 279.949 344.729 282.564 352.849C282.843 353.491 283.24 354.075 283.732 354.572C284.047 354.876 284.24 355.284 284.274 355.721C284.308 356.157 284.181 356.591 283.917 356.94C283.087 357.986 281.672 358.939 279.642 357.555C279.642 357.555 276.074 351.557 279.796 345.529C279.796 345.529 285.178 338.793 294.098 345.375C299.019 349.005 303.417 358.109 300.28 369.243C298.711 374.779 293.79 382.714 283.548 384.99C283.548 384.99 276.997 386.774 274.782 387.266C272.814 387.697 268.446 389.389 268.784 392.618C269.215 396.832 271.799 397.601 271.799 397.601Z" fill="#F1884F"/>
<path d="M243.564 382.502C252.533 382.502 259.804 375.231 259.804 366.262C259.804 357.293 252.533 350.022 243.564 350.022C234.595 350.022 227.324 357.293 227.324 366.262C227.324 375.231 234.595 382.502 243.564 382.502Z" fill="#FCBB9D"/>
<path d="M243.566 357.679L246.334 363.307L252.578 364.23L248.057 368.628L249.133 374.841L243.566 371.888L237.968 374.841L239.045 368.628L234.524 364.23L240.767 363.307L243.566 357.679Z" fill="#F1884F"/>
<path d="M255.772 341.561C255.772 341.561 267.613 341.715 267.306 331.012C267.306 331.012 267.459 341.408 279.332 341.561C279.332 341.561 267.644 340.762 267.49 352.942C267.459 352.942 268.444 342.392 255.772 341.561Z" fill="white"/>
<path d="M217.299 348.021C217.299 348.021 226.003 348.144 225.757 340.271C225.757 340.271 225.88 347.898 234.554 348.021C234.554 348.021 225.973 347.437 225.849 356.356C225.88 356.356 226.588 348.606 217.299 348.021Z" fill="white"/>
<path d="M226.063 388.19C226.063 388.19 231.169 388.251 231.046 383.638C231.046 383.638 231.107 388.128 236.213 388.19C236.213 388.19 231.169 387.851 231.107 393.08C231.107 393.111 231.538 388.559 226.063 388.19Z" fill="white"/>
<path d="M296.892 447.8C296.892 447.8 292.648 458.565 296.892 468.038H232.148V447.8H296.892Z" fill="#DBDCF1"/>
<path d="M299.23 468.342C299.243 468.568 299.209 468.794 299.129 469.006C299.05 469.218 298.927 469.411 298.768 469.572C298.474 469.865 298.076 470.031 297.661 470.034H161.007C159.278 470.033 157.62 469.345 156.397 468.123C155.175 466.9 154.487 465.242 154.487 463.513V452.256C154.487 450.527 155.175 448.869 156.397 447.646C157.62 446.424 159.278 445.736 161.007 445.735H297.661C298.062 445.732 298.45 445.884 298.742 446.159C299.034 446.434 299.209 446.811 299.23 447.212C299.238 447.415 299.206 447.618 299.134 447.808C299.062 447.998 298.952 448.172 298.811 448.318C298.671 448.465 298.501 448.581 298.314 448.661C298.127 448.74 297.926 448.781 297.723 448.78H239.653C238.242 448.781 236.889 449.342 235.891 450.339C234.893 451.337 234.333 452.69 234.332 454.101V461.637C234.332 463.04 234.89 464.385 235.882 465.378C236.874 466.37 238.219 466.927 239.622 466.927H297.569C297.771 466.909 297.975 466.931 298.169 466.993C298.362 467.054 298.542 467.154 298.696 467.286C298.851 467.418 298.978 467.579 299.069 467.76C299.161 467.941 299.215 468.139 299.23 468.342V468.342Z" fill="#7DC8B3"/>
<path d="M299.232 468.343C299.245 468.569 299.211 468.795 299.132 469.007C299.052 469.219 298.929 469.412 298.771 469.574C298.477 469.867 298.079 470.032 297.664 470.035H238.241C237.283 470.036 236.335 469.847 235.451 469.481C234.566 469.115 233.762 468.578 233.085 467.901C232.408 467.224 231.871 466.42 231.505 465.536C231.139 464.651 230.951 463.703 230.951 462.746V452.996C230.951 452.038 231.139 451.09 231.505 450.205C231.871 449.321 232.408 448.517 233.085 447.84C233.762 447.163 234.566 446.626 235.451 446.26C236.335 445.894 237.283 445.706 238.241 445.706H297.664C298.065 445.703 298.452 445.854 298.744 446.129C299.036 446.405 299.211 446.782 299.232 447.182C299.241 447.386 299.208 447.588 299.136 447.778C299.064 447.969 298.955 448.142 298.814 448.289C298.673 448.435 298.504 448.552 298.317 448.631C298.13 448.711 297.928 448.752 297.725 448.751H239.656C238.245 448.752 236.891 449.312 235.894 450.31C234.896 451.308 234.335 452.661 234.335 454.072V461.608C234.335 463.011 234.892 464.356 235.884 465.348C236.876 466.34 238.222 466.898 239.625 466.898H297.571C297.982 466.874 298.386 467.011 298.697 467.282C299.007 467.552 299.199 467.933 299.232 468.343Z" fill="#52B69A"/>
<path d="M291.785 452.593H255.646V452.839H291.785V452.593Z" fill="#71828A"/>
<path d="M276.412 452.594L279.027 464.681L281.795 460.283V453.486L276.412 452.594Z" fill="#AFAFD5"/>
<path d="M289.759 455.731V464.651L284.5 460.714L279.025 464.651V455.7C279.025 453.516 276.38 452.594 276.38 452.594H288.006C289.759 453.086 289.79 455.454 289.759 455.731Z" fill="#EE504F"/>
<path d="M289.759 455.731H279.025V455.7C279.025 453.516 276.38 452.594 276.38 452.594H288.006C289.759 453.086 289.79 455.454 289.759 455.731Z" fill="#CE4646"/>
<path d="M562.238 469.546H135.329V471.084H562.238V469.546Z" fill="#71828A"/>
</svg>
